<?xml version="1.0" encoding="utf-8"?>
<!-- Generator: Adobe Illustrator 21.0.2, SVG Export Plug-In . SVG Version: 6.00 Build 0)  -->
<svg version="1.1" id="Capa_1" xmlns="http://www.w3.org/2000/svg" xmlns:xlink="http://www.w3.org/1999/xlink" x="0px" y="0px"
	 viewBox="0 0 490.4 490.4" style="enable-background:new 0 0 490.4 490.4;" xml:space="preserve">
<style type="text/css">
	.st0{fill:#FFFFFF;}
</style>
<g>
	<g id="XMLID_1_">
		<g>
			<path class="st0" d="M245.2,24.5c121.7,0,220.7,99,220.7,220.7s-99,220.7-220.7,220.7s-220.7-99-220.7-220.7
				S123.5,24.5,245.2,24.5z M382.3,226.2c0-22.2-8.6-43.1-24.3-58.8s-36.6-24.3-58.7-24.3c-20,0-38.9,7-54,19.9
				c-15.1-13-34.1-20-54.1-20c-22.2,0-43,8.6-58.7,24.3s-24.3,36.6-24.3,58.8s8.7,43,24.4,58.7l96.4,96.4c4.4,4.4,10.1,6.8,16.3,6.8
				s12-2.4,16.3-6.8l96.3-96.3C373.6,269.2,382.3,248.3,382.3,226.2z"/>
			<path class="st0" d="M245.2,0c135.2,0,245.2,110,245.2,245.2s-110,245.2-245.2,245.2S0,380.4,0,245.2S110,0,245.2,0z
				 M465.9,245.2c0-121.7-99-220.7-220.7-220.7s-220.7,99-220.7,220.7s99,220.7,220.7,220.7S465.9,366.9,465.9,245.2z"/>
			<path class="st0" d="M358,167.4c15.7,15.7,24.3,36.6,24.3,58.8c0,22.1-8.7,43-24.4,58.7l-96.3,96.3c-4.3,4.4-10.1,6.8-16.3,6.8
				s-11.9-2.4-16.3-6.8l-96.4-96.4c-15.7-15.7-24.4-36.5-24.4-58.7s8.6-43.1,24.3-58.8S169,143,191.2,143c20,0,39,7,54.1,20
				c15.1-12.9,34-19.9,54-19.9C321.4,143.1,342.3,151.7,358,167.4z M357.8,226.1c0.1-15.6-6-30.3-17.1-41.4
				c-11.1-11.1-25.8-17.2-41.4-17.2c-15.7,0-30.4,6.1-41.5,17.2l-3.9,3.9c-4.8,4.8-12.5,4.8-17.3,0l-4-4
				c-11.1-11.1-25.8-17.2-41.5-17.2s-30.3,6-41.4,17.1c-11,11.1-17.1,25.8-17.1,41.5c0,15.6,6.1,30.3,17.2,41.4l95.5,95.5l95.3-95.3
				C351.7,256.5,357.8,241.8,357.8,226.1z"/>
		</g>
		<g>
		</g>
	</g>
</g>
</svg>
